<svg width="54" height="29" viewBox="0 0 54 29" fill="none" xmlns="http://www.w3.org/2000/svg">
<path d="M2.66 28C2.44667 28 2.18 27.84 1.86 27.52C1.56667 27.1733 1.3 26.7733 1.06 26.32C0.846667 25.84 0.74 25.3867 0.74 24.96C0.74 24.4 0.86 23.5867 1.1 22.52C1.36667 21.4533 1.68667 20.2133 2.06 18.8C2.46 17.36 2.87333 15.8533 3.3 14.28C3.75333 12.68 4.16667 11.0933 4.54 9.52C4.94 7.92 5.26 6.41333 5.5 5C5.76667 3.58667 5.9 2.34667 5.9 1.28C5.9 0.826664 5.95333 0.519998 6.06 0.359998C6.19333 0.173332 6.43333 0.0799994 6.78 0.0799994C6.99333 0.0799994 7.34 0.253332 7.82 0.599998C8.3 0.946664 8.74 1.36 9.14 1.84C9.56667 2.29333 9.79333 2.70667 9.82 3.08C9.9 3.72 10.1533 4.70667 10.58 6.04C11.0333 7.37333 11.5933 8.88 12.26 10.56C12.9533 12.24 13.6867 13.92 14.46 15.6C15.9533 13.84 17.3933 12.0667 18.78 10.28C20.1667 8.49333 21.4333 6.86667 22.58 5.4C23.7267 3.93333 24.7267 2.76 25.58 1.88C26.4333 0.973332 27.0733 0.519999 27.5 0.519999C27.82 0.519999 28.1533 0.653332 28.5 0.919998C28.8733 1.16 29.18 1.46666 29.42 1.84C29.6867 2.18667 29.82 2.52 29.82 2.84C29.82 3.45333 29.6733 4.4 29.38 5.68C29.1133 6.93333 28.7533 8.4 28.3 10.08C27.8467 11.76 27.3667 13.5333 26.86 15.4C26.3533 17.24 25.86 19.0533 25.38 20.84C24.9 22.6 24.5 24.2133 24.18 25.68C23.8333 27.2267 23.46 28 23.06 28C22.6333 28 22.26 27.6667 21.94 27C21.62 26.3067 21.46 25.4533 21.46 24.44C21.46 24.0133 21.54 23.3333 21.7 22.4C21.86 21.44 22.0867 20.32 22.38 19.04C22.6733 17.76 23.0067 16.4 23.38 14.96C23.7533 13.52 24.14 12.1067 24.54 10.72C24.9667 9.33333 25.3933 8.05333 25.82 6.88C24.5933 8.4 23.3933 9.92 22.22 11.44C21.0467 12.96 19.9267 14.3467 18.86 15.6C17.7933 16.8267 16.8333 17.8133 15.98 18.56C15.1267 19.3067 14.3933 19.68 13.78 19.68C13.22 19.68 12.6733 19.36 12.14 18.72C11.6333 18.0533 11.14 17.1733 10.66 16.08C10.18 14.9867 9.71333 13.7867 9.26 12.48C8.83333 11.1733 8.42 9.88 8.02 8.6C7.72667 10.4933 7.36667 12.32 6.94 14.08C6.51333 15.84 6.08667 17.4667 5.66 18.96C5.26 20.4533 4.9 21.7467 4.58 22.84C4.18 24.3067 3.80667 25.5333 3.46 26.52C3.14 27.5067 2.87333 28 2.66 28ZM34.3025 28.16C34.0892 28.16 33.8225 27.9733 33.5025 27.6C33.1825 27.2267 32.9025 26.8133 32.6625 26.36C32.4225 25.88 32.3025 25.48 32.3025 25.16C32.3025 24.0933 32.4625 22.8667 32.7825 21.48C33.1025 20.0667 33.4892 18.5733 33.9425 17C34.4225 15.4 34.8892 13.7867 35.3425 12.16C35.7958 10.5067 36.1825 8.88 36.5025 7.28C36.8225 5.68 36.9825 4.18667 36.9825 2.8C36.9825 2.16 37.2225 1.65333 37.7025 1.28C38.2092 0.906665 39.0492 0.653332 40.2225 0.519999C41.3958 0.359999 43.0092 0.279999 45.0625 0.279999C47.0092 0.279999 48.5558 0.333333 49.7025 0.44C50.8492 0.546665 51.7025 0.693331 52.2625 0.879999C52.8225 1.04 53.1825 1.2 53.3425 1.36C53.5292 1.52 53.6225 1.66667 53.6225 1.8C53.6225 1.93333 53.4892 2.08 53.2225 2.24C52.9825 2.4 52.4225 2.57333 51.5425 2.76C50.6625 2.92 49.3158 3.10667 47.5025 3.32C45.6892 3.53333 43.2358 3.78667 40.1425 4.08C40.1958 5.04 40.0892 6.24 39.8225 7.68C39.5558 9.09333 39.1558 10.8933 38.6225 13.08C40.5692 13.1867 42.2225 13.16 43.5825 13C44.9692 12.8133 46.2625 12.72 47.4625 12.72C48.4758 12.72 48.9825 12.9333 48.9825 13.36C48.9825 13.8133 48.6892 14.2133 48.1025 14.56C47.5158 14.88 46.7558 15.16 45.8225 15.4C44.9158 15.64 43.9425 15.8267 42.9025 15.96C41.8892 16.0933 40.9292 16.1867 40.0225 16.24C39.1158 16.2933 38.3958 16.3067 37.8625 16.28C37.7025 17.1333 37.5025 18.0933 37.2625 19.16C37.0225 20.2 36.7692 21.2533 36.5025 22.32C36.2358 23.36 35.9692 24.32 35.7025 25.2C35.4358 26.08 35.1825 26.8 34.9425 27.36C34.7025 27.8933 34.4892 28.16 34.3025 28.16Z" fill="black"/>
</svg>
