<?xml version="1.0" encoding="UTF-8"?>
<svg xmlns="http://www.w3.org/2000/svg" width="100%" height="100%" viewBox="0 0 1920 1080" preserveAspectRatio="none">
  <defs>
    <radialGradient id="skyGradient" cx="50%" cy="50%" r="100%" fx="50%" fy="50%">
      <stop offset="0%" style="stop-color:#000011;stop-opacity:1" />
      <stop offset="100%" style="stop-color:#000033;stop-opacity:1" />
    </radialGradient>
  </defs>
  <rect width="1920" height="1080" fill="url(#skyGradient)" />

  <!-- Dense Star Field -->
  <g fill="white" opacity="0.8">
    <circle cx="50" cy="100" r="0.8" />
    <circle cx="150" cy="200" r="0.5" />
    <circle cx="250" cy="300" r="0.6" />
    <circle cx="350" cy="400" r="0.4" />
    <circle cx="450" cy="500" r="0.7" />
    <circle cx="550" cy="600" r="0.6" />
    <circle cx="650" cy="700" r="0.5" />
    <circle cx="750" cy="800" r="0.4" />
    <circle cx="850" cy="900" r="0.7" />
    <circle cx="950" cy="1000" r="0.6" />
    <circle cx="1050" cy="1100" r="0.4" />
    <circle cx="1150" cy="1200" r="0.7" />
    <circle cx="1250" cy="1300" r="0.6" />
    <circle cx="1350" cy="1400" r="0.5" />
    <circle cx="1450" cy="1500" r="0.4" />
    <circle cx="1550" cy="1600" r="0.7" />
    <circle cx="1650" cy="1700" r="0.6" />
    <circle cx="1750" cy="1800" r="0.4" />
    <circle cx="1850" cy="1900" r="0.7" />
    <circle cx="1950" cy="2000" r="0.6" />
    <circle cx="100" cy="800" r="0.5" />
    <circle cx="300" cy="50" r="0.6" />
    <circle cx="900" cy="250" r="0.7" />
    <circle cx="1700" cy="650" r="0.4" />
    <circle cx="1450" cy="300" r="0.5" />
    <circle cx="1250" cy="950" r="0.6" />
    <circle cx="350" cy="750" r="0.5" />
    <circle cx="1150" cy="200" r="0.7" />
    <circle cx="1750" cy="850" r="0.6" />
    <circle cx="450" cy="150" r="0.4" />
    <circle cx="600" cy="900" r="0.5" />
    <circle cx="1800" cy="400" r="0.6" />
    <circle cx="200" cy="400" r="0.5" />
    <circle cx="500" cy="300" r="0.4" />
    <circle cx="700" cy="100" r="0.6" />
    <circle cx="300" cy="600" r="0.5" />
    <circle cx="1200" cy="400" r="0.4" />
    <circle cx="1500" cy="800" r="0.5" />
    <circle cx="1900" cy="300" r="0.7" />
    <circle cx="800" cy="700" r="0.6" />
    <circle cx="400" cy="200" r="0.5" />
    <circle cx="1000" cy="500" r="0.4" />
    <circle cx="1400" cy="900" r="0.5" />
    <circle cx="1700" cy="400" r="0.6" />
    <circle cx="600" cy="300" r="0.5" />
    <circle cx="1600" cy="600" r="0.4" />
    <circle cx="900" cy="800" r="0.5" />
    <circle cx="200" cy="700" r="0.6" />
  </g>

  <!-- Larger Stars -->
  <circle cx="400" cy="300" r="2" fill="white" opacity="0.9" />
  <circle cx="800" cy="500" r="1.5" fill="white" opacity="0.9" />
  <circle cx="1200" cy="700" r="2" fill="white" opacity="0.9" />
  <circle cx="1600" cy="900" r="1.5" fill="white" opacity="0.8" />
</svg>
